# Blender v2.80 (sub 75) OBJ File: 'Surface_Cut.blend'
# www.blender.org
mtllib Surface_Cut.mtl
o Surface
v -0.834000 0.100000 -0.834000
v 0.359996 0.100000 -0.840594
v 0.834000 0.100000 -0.391000
v 0.834000 0.100000 0.834600
v -0.834000 0.100000 0.834600
v 0.425934 0.100000 -0.772458
v 0.441583 0.100000 -0.666091
v 0.489938 0.100000 -0.580899
v 0.560752 0.100000 -0.530198
v 0.674988 0.100000 -0.473773
v 0.790041 0.100000 -0.465730
v 0.729670 0.100000 -0.223976
v -0.721937 0.100000 -0.221602
v 0.728900 0.100000 0.223739
v -0.720797 0.099807 0.224580
vt 0.785201 0.832483
vt 0.747676 0.887815
vt 0.068875 0.634933
vt 0.069759 0.367397
vt 0.000000 0.000000
vt 1.000000 0.000000
vt 0.937452 0.634409
vt 0.827578 0.804211
vt 0.783650 0.834033
vt 0.748549 0.953272
vt 1.000000 0.734508
vt 0.936990 0.366092
vt 0.961245 0.767062
vt 1.000000 0.734508
vt 0.896763 0.766990
vt 0.700788 1.000000
vt 0.000000 1.000000
vn 0.0000 1.0000 0.0000
vn 0.0001 1.0000 0.0000
vn 0.0025 1.0000 0.0002
vn 0.0002 1.0000 -0.0003
vn -0.0001 1.0000 -0.0001
usemtl Default_OBJ
s 1
f 8/1/1 7/2/1 13/3/2
f 15/4/3 5/5/4 4/6/5
f 13/3/2 12/7/1 8/1/1
f 12/7/1 9/8/1 8/9/1
f 7/2/1 6/10/1 13/3/2
f 4/6/5 3/11/1 14/12/1
f 3/13/1 11/14/1 10/15/1
f 14/12/1 3/11/1 12/7/1
f 10/15/1 9/8/1 12/7/1
f 6/10/1 2/16/1 13/3/2
f 2/16/1 1/17/1 13/3/2
f 10/15/1 12/7/1 3/11/1
f 13/3/2 1/17/1 5/5/4
f 15/4/3 13/3/2 5/5/4
f 14/12/1 15/4/3 4/6/5
